<?xml version="1.0" encoding="UTF-8"?>
<svg width="793.7" height="600" version="1.1" viewBox="0 0 210 158.75" xmlns="http://www.w3.org/2000/svg">
<path transform="translate(-.017392 -78.054)" d="m38.206 82.169c-0.34691 0.01336-0.63761 0.06988-0.86765 0.17208-3.9418 1.7513-5.5053 23.764-4.6979 41.881-1.1666 1.3254-2.2288 2.6804-3.1962 4.0582l-22.638-14.155-3.746 5.9903c7.6083 4.7579 15.216 9.5138 22.822 14.27-1.633 3.4866-2.6627 7.0782-3.0623 10.714h-22.82v7.0647h22.838c0.41657 3.5939 1.4406 7.098 3.0158 10.468l-22.794 14.252 3.746 5.9903 22.604-14.134c37.478 42.077 123.85 35.596 151.18-0.01912l22.635 14.153 3.746-5.9903-22.83-14.275c1.5883-3.4044 2.6171-6.9446 3.0231-10.577h22.867v-7.0668h-22.863c-0.40479-3.5882-1.4218-7.1328-3.0293-10.576l22.832-14.276-3.746-5.9903-22.64 14.156c-0.96645-1.3796-2.0288-2.7366-3.1946-4.0638 0.80684-18.115-0.75655-40.125-4.6979-41.876-3.5912-1.5955-21.911 7.9646-39.874 18.245-8.9258-1.9808-18.338-2.9941-27.822-2.9952-9.474 0.0015-18.877 1.0132-27.795 2.9905-16.426-9.4006-33.149-18.198-38.633-18.411-0.12805-0.004997-0.24972-0.005533-0.36535-0.001033zm67.449 20.424 0.23047 3.0355c2.5894 0.15554 5.0278 0.99103 7.1169 2.343l1.9896-2.3167 3.0339 2.6066-1.988 2.3141c1.656 1.8592 2.8559 4.1454 3.4029 6.6962l3.0355-0.22996 0.30283 3.9879-3.036 0.23048c-0.1553 2.5975-0.99473 5.0388-2.3502 7.1282l2.3115 1.9854-2.6066 3.0339-2.3115-1.9854c-1.8592 1.652-4.143 2.8481-6.6854 3.3936l0.22996 3.035-3.9889 0.30283-0.22996-3.0355c-2.5984-0.15569-5.0416-0.99534-7.1329-2.3528l-1.9916 2.3203-3.036-2.606 1.9942-2.3213c-1.6502-1.8581-2.8455-4.1408-3.3905-6.6833l-3.0339 0.23048-0.30282-3.9884 3.035-0.23048c0.15573-2.5926 0.99328-5.0321 2.3471-7.1215l-2.327-1.9978 2.6081-3.0344 2.3239 1.9973c1.8591-1.6539 4.1441-2.852 6.6916-3.3982l-0.23047-3.036 3.9884-0.30282zm-0.81494 7.0084c-0.18 0.00299-0.36101 0.01025-0.5426 0.02222-0.09225 0.00609-0.18429 0.01331-0.27699 0.02171-5.9268 0.54025-10.264 5.7231-9.7539 11.653 0.51028 5.9295 5.6699 10.295 11.602 9.8144 5.932-0.48029 10.321-5.6195 9.8707-11.554a2 2 0 0 1 0.03669-0.11266 2 2 0 0 1-0.05478-0.10283c-0.54376-5.6492-5.3011-9.834-10.881-9.7415zm-38.03 10.769h4.0473v4.6431c4.5688 0.42017 8.7341 2.2511 12.063 5.0576l0.60875-0.60875 1.295-1.2971 1.4139-1.4139 2.8283 2.8282-1.4139 1.4139-1.295 1.2971-0.62374 0.62374c2.7435 3.3256 4.5394 7.4731 4.9671 12.023h5.041v4.0959h-5.0416c-0.42534 4.5412-2.2181 8.6929-4.9651 12.024l0.62218 0.62218 1.295 1.2971 1.4139 1.4139-2.8283 2.8283-1.4139-1.4144-1.295-1.2966-0.60668-0.60668c-3.3236 2.803-7.4859 4.6358-12.065 5.0565v4.6416h-4.0473v-4.6406c-4.5713-0.41817-8.7483-2.2396-12.092-5.0307l-0.57929 0.57981-1.295 1.2966-1.4139 1.4144-2.8283-2.8283 1.4139-1.4139 1.295-1.2971 0.57929-0.57929c-2.7824-3.334-4.6025-7.4991-5.0255-12.067h-4.9403v-4.0959h4.9392c0.42188-4.559 2.241-8.7273 5.0271-12.066l-0.57981-0.57981-1.295-1.2971-1.4139-1.4139 2.8283-2.8282 1.4139 1.4139 1.295 1.2971 0.57929 0.57929c3.3387-2.7871 7.5118-4.6111 12.092-5.0302v-4.6411zm77.289 0.08475 3.9775 0.74827-0.85835 4.563c4.4124 1.2576 8.1673 3.8271 10.92 7.2006l0.71055-0.48576 1.5126-1.0351 1.6511-1.1281 2.2567 3.3021-1.6511 1.1281-1.5126 1.0356-0.72813 0.49765c2.0814 3.7754 3.0795 8.1835 2.6588 12.734l4.9542 0.93173-0.75706 4.0251-4.9547-0.93173c-1.2576 4.3843-3.787 8.1327-7.1024 10.899l0.49662 0.72657 1.0325 1.5141 1.1281 1.6511-3.3021 2.2567-1.1281-1.6516-1.033-1.5136-0.48421-0.70848c-3.7844 2.1402-8.2136 3.1719-12.791 2.7388l-0.85835 4.562-3.9775-0.74828 0.85783-4.561c-4.4152-1.2561-8.183-3.8182-10.953-7.1794l-0.67697 0.46302-1.512 1.0346-1.6511 1.1286-2.2567-3.3021 1.6511-1.1281 1.5126-1.0356 0.67593-0.46199c-2.1181-3.7909-3.1366-8.221-2.7078-12.788l-4.855-0.91312 0.75706-4.0251 4.854 0.91312c1.2574-4.4025 3.8163-8.1625 7.1717-10.929l-0.46302-0.67748-1.033-1.5141-1.1281-1.6506 3.3026-2.2567 1.1281 1.6511 1.033 1.5141 0.46199 0.67645c3.7964-2.1218 8.2347-3.1433 12.814-2.7084l0.85835-4.561zm-3.0556 8.5488c-8.5263 0.04-16.03 6.1408-17.575 14.836-1.7346 9.7634 4.7092 19.044 14.464 20.828 9.7545 1.784 19.068-4.615 20.902-14.36l0.03101-0.16485 0.03256-0.19275c1.6102-9.6276-4.7011-18.707-14.22-20.596h-5.2e-4c-0.15109-0.02995-0.3031-0.05795-0.45579-0.08423-1.0688-0.18433-2.131-0.27053-3.1781-0.26562zm-72.019 0.00465c-0.15403-0.0015-0.30861-8.5e-4 -0.46354 0.00155-9.9152 0.1504-17.802 8.2402-17.701 18.156 0.10027 9.9158 8.1483 17.845 18.065 17.795 9.9162-0.05014 17.887-8.0604 17.887-17.977v-0.16795l-0.004134-0.19534c-0.1974-9.7594-8.0785-17.516-17.782-17.612zm35.865 47.253v5.2e-4c0.037-1e-3 0.0741-9.1e-4 0.1111 5.2e-4 0.0401-1e-3 0.0803-7.2e-4 0.12041 0.00103 0.62519 0.0416 1.1722 0.43534 1.4102 1.0149 0.85305 2.0854 2.6703 3.8649 4.7434 4.3005 2.9696 0.58956 6.1482-0.82944 8.9705-2.7089 0.75517-0.50259 1.7748-0.29783 2.2774 0.45734 0.50244 0.7548 0.29819 1.774-0.4563 2.2769-3.1146 2.0741-7.1018 4.0616-11.44 3.1962-5e-3 -1e-3 -0.00996-0.0021-0.01446-0.0031-2.3266-0.48502-4.2448-1.8673-5.611-3.6458-1.3662 1.7783-3.2841 3.1608-5.6105 3.6458-0.0048 1e-3 -0.009599 0.0021-0.014469 0.0031-4.3384 0.86541-8.3256-1.1222-11.44-3.1962-0.75449-0.50287-0.95874-1.5221-0.4563-2.2769 0.50257-0.75485 1.5218-0.95958 2.2769-0.45734 2.8223 1.8794 6.0015 3.2984 8.971 2.7089 2.0732-0.43563 3.8903-2.2151 4.7434-4.3005 0.23802-0.57959 0.78506-0.9733 1.4102-1.0149 3e-3 -5.2e-4 0.00579-0.00107 0.00879-0.00207z" stroke="#000" stroke-linecap="round" stroke-linejoin="round" style="paint-order:normal"/>
<path d="m141.15 132.11a36.166 4.8408 0 0 1-35.983 4.8408 36.166 4.8408 0 0 1-36.347-4.7918 36.166 4.8408 0 0 1 35.615-4.8892 36.166 4.8408 0 0 1 36.707 4.7424" fill="none" stroke="#000" stroke-linecap="round" stroke-miterlimit=".4" stroke-width="4" style="paint-order:fill markers stroke"/>
<path d="m121.13 151.34a16.145 3.1987 0 0 1-16.063 3.1986 16.145 3.1987 0 0 1-16.225-3.1663 16.145 3.1987 0 0 1 15.899-3.2307 16.145 3.1987 0 0 1 16.386 3.1336" fill="none" stroke="#000" stroke-linecap="round" stroke-miterlimit=".4" stroke-width="4" style="paint-order:fill markers stroke"/>
</svg>
